# xmcd CD database file
# Copyright (C) 1995-1998 Ti Kan
#
# Track frame offsets:
#	182
#	16687
#	30265
#	38802
#	48537
#	72150
#	90695
#	101895
#	115917
#	130617
#	147105
#	163067
#	179362
#	200767
#	222230
#	236417
#	255317
#	279967
#	294550
#	312672
#
# Disc length: 4358 seconds
#
# Revision: 1
# Processed by: cddbd v1.4b41PL1 Copyright (c) Steve Scherf et al.
# Submitted via: CDex 1.30
#
DISCID=1c110414
DTITLE=John Denver - Gold Collection
DYEAR=1997
DGENRE=Country
TTITLE0=Leaving on a jet plane
TTITLE1=Annie's song
TTITLE2=Perhaps love
TTITLE3=The Eagle and the Hawk
TTITLE4=Sunshine on my shoulders
TTITLE5=Poems, Prayers and Promises
TTITLE6=Follow me
TTITLE7=Starwood in Aspen
TTITLE8=Rhymes and Reasons
TTITLE9=Goodbye again
TTITLE10=I'm sorry
TTITLE11=Calypso
TTITLE12=Rocky mountain high
TTITLE13=Back home again
TTITLE14=Thank god I'm a country boy
TTITLE15=Fly away
TTITLE16=Sweet surrender
TTITLE17=Shanghai bezzes
TTITLE18=Some days are diamonds
TTITLE19=Take me home, country roads
EXTD=\nYEAR: 1997  ID3G:   2
EXTT0=
EXTT1=
EXTT2=
EXTT3=
EXTT4=
EXTT5=
EXTT6=
EXTT7=
EXTT8=
EXTT9=
EXTT10=
EXTT11=
EXTT12=
EXTT13=
EXTT14=
EXTT15=
EXTT16=
EXTT17=
EXTT18=
EXTT19=
PLAYORDER=
